<svg xmlns="http://www.w3.org/2000/svg" width="21" height="21" viewBox="0 0 21 21" fill="none">
<path d="M18.639 10.0617L18.1126 9.15176C18.0061 8.96579 17.8523 8.81135 17.6667 8.70418C17.4812 8.59701 17.2705 8.54093 17.0562 8.54165H14.4764C14.2932 8.54159 14.1119 8.57763 13.9427 8.64769C13.7734 8.71775 13.6197 8.82047 13.4902 8.94997C13.3607 9.07948 13.258 9.23323 13.1879 9.40245C13.1178 9.57167 13.0818 9.75304 13.0819 9.93618V12.7252H9.53271C9.39202 13.0996 9.22904 13.4651 9.04466 13.82C8.72398 14.4279 7.80804 13.9631 8.11027 13.3458C8.40556 12.7741 8.64154 12.1736 8.81451 11.5538C9.11494 10.4607 9.21072 9.44499 9.11089 8.39176C9.7349 7.92689 10.1834 7.26463 10.3834 6.51263C11.3974 2.22482 5.43986 0.299612 3.74893 4.39297C3.30126 5.61447 3.81965 6.85063 3.11431 8.0187C2.83528 8.57834 2.61338 9.16468 2.45196 9.76884C2.07549 11.1703 2.04758 12.5265 2.30556 13.6282C2.48833 14.3614 2.46957 15.1227 2.20791 15.8281C1.72503 17.6007 3.57219 19.3494 5.30389 18.7461L13.5839 16.5218C14.0083 16.366 14.3937 16.1198 14.7134 15.8002L18.3636 12.15C18.6328 11.8807 18.8057 11.5301 18.8555 11.1526C18.9053 10.775 18.8292 10.3916 18.639 10.0617ZM5.2446 11.9373C5.11264 12.4384 4.9292 12.9244 4.69722 13.3876C4.65357 13.474 4.58674 13.5464 4.50422 13.5969C4.4217 13.6474 4.32676 13.674 4.23002 13.6735C3.85262 13.6813 3.58459 13.2528 3.76292 12.917C4.33231 11.8202 4.63001 10.1573 4.35904 9.07854C4.32856 8.94362 4.35244 8.80212 4.42552 8.68467C4.49859 8.56722 4.61498 8.48328 4.74948 8.451C5.90122 8.21586 5.4708 11.12 5.2446 11.9373Z" fill="#0E0E0E"/>
</svg>