<svg xmlns="http://www.w3.org/2000/svg" width="162" height="115" viewBox="0 0 162 115" fill="none">
<path d="M95.117 1.31369L95.117 1.31376L95.1279 1.3094C95.9949 0.960552 97.3964 0.896159 98.9338 1.17009C100.454 1.44089 101.929 2.01142 102.922 2.75208L102.932 2.75999L102.943 2.76762C105.206 4.36449 108.518 5.64825 112.32 6.62322C116.141 7.60297 120.535 8.29007 125.018 8.65326C133.947 9.37654 143.399 8.82785 149.467 6.62769C151.42 5.93796 153.637 5.56358 155.636 5.53025C157.673 5.49629 159.324 5.81906 160.249 6.37499C160.692 6.64145 160.889 6.91126 160.96 7.14644C161.03 7.37445 161.035 7.74296 160.742 8.3228C160.124 9.54248 158.379 11.2983 154.762 13.5812L154.76 13.5823C142.405 21.4144 133.185 29.7092 123.387 42.0453L123.387 42.0457C120.795 45.3139 118.399 47.4062 116.206 48.4618C114.056 49.4967 112.103 49.5392 110.25 48.7057C109.224 48.2271 108.801 47.6439 108.702 46.935C108.59 46.1222 108.867 44.911 109.837 43.1494C111.766 39.6462 116.07 34.601 123.168 27.462C125.479 25.1752 127.497 23.0706 128.887 21.5315C129.579 20.7651 130.129 20.1232 130.483 19.6631C130.652 19.4437 130.812 19.2202 130.914 19.0268L130.916 19.0244C130.951 18.9581 131.061 18.7491 131.076 18.4885C131.085 18.3415 131.071 18.0225 130.821 17.7375C130.557 17.4376 130.22 17.3867 130.039 17.3867C129.885 17.3867 129.737 17.4224 129.684 17.4353L129.68 17.4363C129.596 17.4566 129.501 17.4835 129.4 17.5138C129.197 17.5747 128.933 17.6615 128.62 17.7687C127.992 17.9841 127.136 18.2933 126.115 18.6728C124.073 19.4325 121.354 20.4814 118.451 21.6419L118.45 21.6424C105.345 26.8993 92.6606 33.9979 84.4707 39.9728C80.4053 42.9387 77.3363 45.7062 75.9255 47.894C75.2466 48.9467 74.7607 50.1572 75.1589 51.265C75.5851 52.4506 76.7966 52.9646 78.1283 53.1459L78.1292 53.146C89.0334 54.6202 96.1625 62.2084 98.2314 70.5138C100.295 78.7972 97.3326 87.7534 88.0099 92.1927C76.7647 97.5189 66.0964 96.3671 59.2202 91.3893C52.3822 86.4391 49.1085 77.5779 52.8359 66.9807L52.8389 66.9721L52.8418 66.9635C53.1032 66.1749 53.3331 65.4439 53.4798 64.9026C53.5514 64.6385 53.6126 64.386 53.6435 64.1843C53.657 64.0966 53.677 63.9458 53.6642 63.7867C53.6586 63.718 53.6402 63.5369 53.5339 63.3431C53.3985 63.0964 53.0955 62.8095 52.6353 62.8095C51.4129 62.8095 50.03 63.2677 48.5851 63.9972C47.1227 64.7355 45.5092 65.7971 43.8022 67.1063C40.3868 69.7259 36.5181 73.3984 32.6219 77.6458C24.8341 86.1357 16.8435 97.0255 12.0737 106.619C11.0713 108.617 10.2804 110.123 9.58786 111.251C8.89016 112.388 8.33643 113.065 7.83331 113.465C6.97107 114.15 6.0922 114.168 3.86731 113.572C2.94227 113.322 2.30852 112.968 1.88132 112.532C1.46383 112.106 1.1782 111.537 1.05996 110.731C0.812414 109.045 1.31712 106.474 2.76142 102.637L2.76253 102.634C6.59306 92.3611 14.488 81.6346 24.0476 72.7704C33.6091 63.9045 44.7424 56.9882 54.9744 54.2415L54.9757 54.2411C56.5762 53.8093 57.7581 53.3316 59.0354 52.3103C60.263 51.3287 61.5511 49.8651 63.4377 47.5584L63.4382 47.5578C77.1365 30.7831 95.8525 23.1845 116.094 14.9665C116.756 14.6978 117.419 14.4285 118.084 14.1581L121.005 12.9706L117.934 12.2577L111.176 10.6892C111.176 10.6892 111.176 10.6891 111.176 10.6891C104.709 9.17386 99.4002 6.93383 96.4306 4.86545C95.6931 4.35175 95.1242 3.86529 94.7227 3.42322C94.3135 2.97271 94.1262 2.62084 94.0644 2.37955C94.0133 2.18015 94.0441 2.06198 94.1287 1.94333C94.2421 1.78429 94.5167 1.54712 95.117 1.31369ZM130.178 19.3742C130.177 19.3745 130.173 19.3754 130.165 19.3768C130.175 19.3746 130.179 19.3739 130.178 19.3742ZM129.146 18.0918C129.145 18.0938 129.144 18.0962 129.142 18.0988C129.152 18.0783 129.155 18.0747 129.146 18.0918ZM72.3916 90.8584L72.3936 90.858C80.1676 89.0901 85.4472 83.2718 87.2572 76.8761C89.0694 70.4727 87.4179 63.3753 81.1943 59.2419C78.6619 57.5569 76.041 56.6661 73.7366 56.6555C71.4162 56.6449 69.345 57.5411 68.1915 59.4897L68.1893 59.4937C64.0392 66.5781 62.4441 74.7845 63.0991 81.0132C63.4255 84.1181 64.3237 86.8458 65.8619 88.6819C67.4525 90.5806 69.6899 91.4671 72.3916 90.8584Z" stroke="white" stroke-width="2"/>
</svg>