Copy
<svg xmlns="http://www.w3.org/2000/svg" width="24" height="24" viewBox="0 0 24 24" fill="none">
<g clip-path="url(#clip0_326_295)">
<path d="M18.8364 13.1216L19.5244 13.1056C27.0604 12.9776 24.5484 1.90556 16.4844 4.83356C10.5324 6.99356 11.6364 16.9296 18.0044 18.5616C20.8204 19.2816 23.9564 18.7696 21.6204 17.9696C19.6204 17.2976 18.0044 15.3616 18.1164 13.7776C18.1484 13.4256 18.4524 13.1216 18.8364 13.1216Z" fill="white"/>
<path d="M4.13184 4.43358C-3.11615 7.21758 -0.172165 19.3776 7.87583 19.9056C9.97183 20.0496 10.5158 19.5536 8.93184 18.9616C7.39584 18.3856 5.45985 15.6656 5.25184 13.8256C5.20385 13.4576 5.49181 13.1536 5.85981 13.1536C7.97181 13.1536 8.85184 13.1536 10.0838 11.4576C13.1078 7.26564 9.09184 2.52957 4.13184 4.43358Z" fill="white"/>
</g>
<defs>
<clipPath id="clip0_326_295">
<rect width="24" height="24" fill="white"/>
</clipPath>
</defs>
</svg>