<svg xmlns="http://www.w3.org/2000/svg" width="24" height="24" viewBox="0 0 24 24" fill="none">
<path d="M5.25 18.75C3.975 18.75 3 17.775 3 16.5V7.5C3 6.225 3.975 5.25 5.25 5.25C6.525 5.25 7.5 6.225 7.5 7.5V16.5C7.5 17.775 6.525 18.75 5.25 18.75Z" fill="#C3FF00"/>
<path d="M18.75 18.75C17.475 18.75 16.5 17.775 16.5 16.5V7.5C16.5 6.225 17.475 5.25 18.75 5.25C20.025 5.25 21 6.225 21 7.5V16.5C21 17.775 20.025 18.75 18.75 18.75Z" fill="#C3FF00"/>
<path d="M17.25 12.75H6.75C6.3 12.75 6 12.45 6 12C6 11.55 6.3 11.25 6.75 11.25H17.25C17.7 11.25 18 11.55 18 12C18 12.45 17.7 12.75 17.25 12.75Z" fill="#C3FF00"/>
<path d="M1.5 7.6499C0.6 7.9499 0 8.7749 0 9.7499V14.2499C0 15.2249 0.6 16.0499 1.5 16.3499V7.6499Z" fill="#C3FF00"/>
<path d="M22.5 7.6499V16.3499C23.4 16.0499 24 15.2249 24 14.2499V9.7499C24 8.7749 23.4 7.9499 22.5 7.6499Z" fill="#C3FF00"/>
</svg>