<svg xmlns="http://www.w3.org/2000/svg" width="23" height="22" viewBox="0 0 23 22" fill="none">
<path d="M10.9616 6.47949C8.24556 6.47949 5.99512 8.69113 5.99512 11.446C5.99512 14.2008 8.20676 16.4125 10.9616 16.4125C13.7165 16.4125 15.9281 14.162 15.9281 11.446C15.9281 8.72993 13.6777 6.47949 10.9616 6.47949ZM10.9616 14.6276C9.21558 14.6276 7.77995 13.192 7.77995 11.446C7.77995 9.69995 9.21558 8.26432 10.9616 8.26432C12.7076 8.26432 14.1433 9.69995 14.1433 11.446C14.1433 13.192 12.7076 14.6276 10.9616 14.6276Z" fill="white"/>
<path d="M16.1223 7.48872C16.7437 7.48872 17.2475 6.98494 17.2475 6.3635C17.2475 5.74206 16.7437 5.23828 16.1223 5.23828C15.5008 5.23828 14.9971 5.74206 14.9971 6.3635C14.9971 6.98494 15.5008 7.48872 16.1223 7.48872Z" fill="white"/>
<path d="M19.032 3.45313C18.0232 2.40551 16.5875 1.8623 14.9579 1.8623H6.96497C3.58931 1.8623 1.33887 4.11275 1.33887 7.48841V15.4426C1.33887 17.111 1.88208 18.5466 2.9685 19.5942C4.01612 20.603 5.41294 21.1075 7.00377 21.1075H14.9191C16.5875 21.1075 17.9844 20.5642 18.9932 19.5942C20.0408 18.5854 20.584 17.1498 20.584 15.4814V7.48841C20.584 5.85878 20.0408 4.46195 19.032 3.45313ZM18.8768 15.4814C18.8768 16.6842 18.45 17.6542 17.7516 18.3138C17.0532 18.9734 16.0831 19.3226 14.9191 19.3226H7.00377C5.83975 19.3226 4.86973 18.9734 4.17132 18.3138C3.47291 17.6154 3.1237 16.6454 3.1237 15.4426V7.48841C3.1237 6.32439 3.47291 5.35437 4.17132 4.65596C4.83093 3.99634 5.83975 3.64714 7.00377 3.64714H14.9967C16.1607 3.64714 17.1308 3.99634 17.8292 4.69476C18.4888 5.39317 18.8768 6.36319 18.8768 7.48841V15.4814Z" fill="white"/>
</svg>