<svg xmlns="http://www.w3.org/2000/svg" width="23" height="22" viewBox="0 0 23 22" fill="none">
<path d="M15.6032 0H6.43652C5.70718 0 5.0077 0.289731 4.49198 0.805456C3.97625 1.32118 3.68652 2.02065 3.68652 2.75V19.25C3.68652 19.9793 3.97625 20.6788 4.49198 21.1945C5.0077 21.7103 5.70718 22 6.43652 22H15.6032C16.3325 22 17.032 21.7103 17.5477 21.1945C18.0635 20.6788 18.3532 19.9793 18.3532 19.25V2.75C18.3532 2.02065 18.0635 1.32118 17.5477 0.805456C17.032 0.289731 16.3325 0 15.6032 0ZM5.51986 17.4167V3.20833C5.51986 3.08678 5.56815 2.9702 5.6541 2.88424C5.74005 2.79829 5.85663 2.75 5.97819 2.75H16.0615C16.1831 2.75 16.2997 2.79829 16.3856 2.88424C16.4716 2.9702 16.5199 3.08678 16.5199 3.20833V17.4167C16.5199 17.5382 16.4716 17.6548 16.3856 17.7408C16.2997 17.8267 16.1831 17.875 16.0615 17.875H5.97819C5.85663 17.875 5.74005 17.8267 5.6541 17.7408C5.56815 17.6548 5.51986 17.5382 5.51986 17.4167Z" fill="white"/>
</svg>