<svg xmlns="http://www.w3.org/2000/svg" width="14" height="17" viewBox="0 0 14 17" fill="none">
<path d="M3.95275 17C0.52172 15.037 -0.381598 13.1789 0.134855 10.6413C0.516124 8.76742 1.76457 7.24288 1.88427 5.37264C2.41757 6.35784 2.64041 7.06826 2.69999 8.09779C4.39615 5.98818 5.517 3.06774 5.58337 0C5.58337 0 10.0012 2.63514 10.2911 6.61555C10.6714 5.79512 10.8629 4.49208 10.4826 3.64758C11.6235 4.49212 18.3015 11.9894 9.57802 17C11.2181 13.7581 10.0011 9.38384 7.15346 7.36358C7.34364 8.23226 7.01021 11.4722 5.75038 12.8959C6.09946 10.5171 5.41825 9.5112 5.41825 9.5112C5.41825 9.5112 5.18445 10.8436 4.2773 12.1896C3.44893 13.4188 2.87495 14.7233 3.95275 17Z" fill="#0E0E0E"/>
</svg>