<svg xmlns="http://www.w3.org/2000/svg" width="21" height="21" viewBox="0 0 21 21" fill="none">
<path d="M15.4745 11.4442C15.2971 10.8604 15.0778 10.2901 14.8183 9.73793C14.5999 9.25092 14.3522 8.77755 14.0767 8.32043C13.4639 7.31544 12.7324 6.38783 11.898 5.55762L11.8389 5.49855C11.4569 5.12154 11.0538 4.76659 10.6314 4.43543C10.4805 4.31074 10.3164 4.19918 10.1589 4.08105C10.1473 4.24497 10.105 4.40525 10.0342 4.55355C9.92266 4.7898 9.80453 5.02606 9.66672 5.26231C8.64161 7.13078 7.11099 8.67276 5.25016 9.71168C5.02703 9.83637 4.79734 9.96106 4.55453 10.0726C4.4061 10.142 4.24567 10.1821 4.08203 10.1907C4.20016 10.3482 4.31172 10.5123 4.43641 10.6698C4.76952 11.0884 5.12438 11.4893 5.49953 11.8707L5.55859 11.9298C6.38724 12.7641 7.31511 13.4936 8.32141 14.102C8.77475 14.3821 9.24609 14.632 9.73234 14.8501C10.2854 15.0985 10.8557 15.3068 11.4386 15.4736C11.8201 15.5858 12.2156 15.6432 12.6133 15.6442H12.7183C13.1586 15.6419 13.5932 15.5434 13.9914 15.3554C14.2887 15.2203 14.5597 15.0337 14.792 14.8042C15.025 14.5748 15.2121 14.303 15.3433 14.0036C15.5312 13.6053 15.6298 13.1708 15.632 12.7304C15.6459 12.2961 15.5927 11.8623 15.4745 11.4442Z" fill="#0E0E0E"/>
<path d="M9.18768 3.39891C7.12554 2.07697 4.68565 1.47046 2.24456 1.67297C2.09839 1.69119 1.9626 1.75805 1.85903 1.8628C1.75547 1.96755 1.69017 2.1041 1.67362 2.25047C1.46912 4.68965 2.07585 7.12809 3.39956 9.18703C3.45275 9.29871 3.53641 9.39308 3.64091 9.45926C3.74541 9.52544 3.86649 9.56074 3.99018 9.56109C4.08796 9.56051 4.18437 9.53809 4.27237 9.49547C4.4955 9.39047 4.71206 9.27891 4.92862 9.15422C6.69794 8.17775 8.15595 6.72201 9.13518 4.95422C9.25987 4.73766 9.37143 4.51453 9.47643 4.29797C9.51808 4.22031 9.54367 4.13505 9.55165 4.04728C9.55964 3.95952 9.54987 3.87104 9.52292 3.78714C9.49597 3.70323 9.4524 3.62561 9.3948 3.55891C9.33721 3.49221 9.26677 3.43779 9.18768 3.39891ZM6.37237 5.05922C6.31105 5.12004 6.23833 5.16816 6.15837 5.20082C6.07842 5.23348 5.9928 5.25003 5.90643 5.24953C5.77609 5.25029 5.64847 5.21221 5.53984 5.14016C5.43122 5.0681 5.34652 4.96533 5.29653 4.84494C5.24655 4.72456 5.23355 4.59201 5.25919 4.46421C5.28483 4.33641 5.34794 4.21913 5.4405 4.12734C5.53229 4.03479 5.64956 3.97167 5.77736 3.94604C5.90516 3.9204 6.03771 3.9334 6.15809 3.98338C6.27848 4.03337 6.38125 4.11807 6.45331 4.22669C6.52536 4.33531 6.56344 4.46293 6.56268 4.59328C6.56318 4.67965 6.54663 4.76526 6.51397 4.84522C6.48131 4.92518 6.43319 4.9979 6.37237 5.05922Z" fill="#0E0E0E"/>
<path d="M7.98035 14.66C6.93103 14.0234 5.96353 13.2609 5.09941 12.3893L5.04035 12.3303C4.75816 12.0415 4.49566 11.7462 4.23972 11.4443C4.15055 11.9469 4.1737 12.4629 4.30752 12.9554C4.44134 13.4479 4.68251 13.9047 5.01373 14.293C5.34494 14.6813 5.75799 14.9915 6.22325 15.2013C6.6885 15.4111 7.19443 15.5153 7.70472 15.5065C8.156 15.501 8.60185 15.4074 9.01722 15.2309C8.67597 15.0931 8.32816 14.8765 7.98035 14.66Z" fill="#0E0E0E"/>
<path d="M19.6879 14.1811C19.6588 14.07 19.6011 13.9685 19.5205 13.8868C19.4398 13.805 19.3392 13.7458 19.2286 13.7151L16.3017 12.9014C16.2806 13.3789 16.1646 13.8474 15.9604 14.2795C15.8051 14.6438 15.5825 14.9755 15.3042 15.2573C15.0132 15.5334 14.6754 15.7556 14.3067 15.9136C13.8803 16.1135 13.4187 16.2272 12.9482 16.2482L13.762 19.1751C13.7927 19.2858 13.8519 19.3864 13.9336 19.467C14.0154 19.5476 14.1169 19.6054 14.2279 19.6345C14.2824 19.6409 14.3375 19.6409 14.392 19.6345C14.4784 19.635 14.564 19.6184 14.6439 19.5858C14.7239 19.5531 14.7966 19.505 14.8579 19.4442L19.5436 14.7586C19.6114 14.6805 19.6599 14.5875 19.685 14.4871C19.7101 14.3868 19.7111 14.2819 19.6879 14.1811Z" fill="#0E0E0E"/>
<path d="M12.3313 5.03288L12.3969 5.09851C13.269 5.96624 14.0335 6.9357 14.6741 7.98601C14.8841 8.33382 15.0678 8.68163 15.2384 9.02945C15.462 8.49605 15.5498 7.91554 15.4939 7.3399C15.4381 6.76425 15.2404 6.21143 14.9186 5.73092C14.5967 5.2504 14.1607 4.8572 13.6496 4.5865C13.1386 4.31579 12.5683 4.17605 11.99 4.17976C11.8074 4.18332 11.6253 4.20088 11.4453 4.23226C11.7406 4.48163 12.0425 4.74413 12.3313 5.03288Z" fill="#0E0E0E"/>
</svg>