
<svg xmlns="http://www.w3.org/2000/svg" width="820" height="135" viewBox="0 0 820 135" fill="none">
<path d="M510.458 135C510.416 135 510.416 135 510.373 135C508.71 134.984 507.345 134.521 507.132 133.915L462.266 14.6008L445.078 76.731C444.908 77.2734 443.841 77.7202 442.434 77.8319C440.984 77.9436 439.534 77.6883 438.809 77.2256L410.107 58.2068L392.109 73.6197C391.555 74.1143 390.232 74.4015 388.782 74.3696C387.375 74.3377 386.181 73.9548 385.797 73.4442L379.57 64.94L344.897 108.163C344.428 108.737 342.978 109.104 341.4 109.057C339.822 109.009 338.543 108.546 338.372 107.956L325.919 69.3756L306.812 87.07C306.258 87.5966 304.808 87.9157 303.315 87.8519C301.822 87.7881 300.628 87.3573 300.372 86.7988L280.967 39.1082L232.945 116.316C232.562 116.907 231.111 117.321 229.448 117.29C227.828 117.258 226.505 116.779 226.335 116.157L197.462 10.5002L170.252 69.5989C169.996 70.1255 168.888 70.5403 167.48 70.6201C166.073 70.6999 164.665 70.4446 163.983 69.9819L148.118 59.0046L115.108 79.8742C114.383 80.321 113.018 80.5602 111.653 80.4805C110.289 80.4007 109.18 80.0018 108.924 79.4912L92.6749 49.0325L72.0331 71.6093C71.564 72.1199 70.2845 72.439 68.8771 72.439C67.4697 72.439 66.1903 72.1837 65.7212 71.6891L55.0591 60.4725H3.36928C1.5354 60.4725 0 59.8821 0 59.196C0 58.5099 1.49275 57.9196 3.36928 57.9196H57.4474C58.8548 57.9196 60.1342 58.2227 60.6034 58.7174L68.8345 67.413L90.3719 43.8151C90.8837 43.2726 92.2485 42.9216 93.7838 42.9694C95.3191 43.0013 96.5559 43.4162 96.8545 43.9746L113.829 75.7896L145.388 55.8294C145.985 55.4465 147.137 55.2072 148.331 55.2072C149.525 55.2231 150.634 55.4625 151.231 55.8614L165.305 65.5941L194.988 1.03871C195.287 0.416447 196.737 -0.0303038 198.4 0.00160695C200.064 0.0175623 201.471 0.512194 201.641 1.13445L230.941 108.418L278.408 32.1517C278.792 31.5613 280.2 31.1624 281.82 31.1784C283.441 31.1943 284.763 31.6571 285.019 32.2474L305.192 81.8686L324.597 63.9029C325.151 63.3763 326.644 63.0572 328.137 63.1211C329.672 63.2008 330.866 63.6476 331.037 64.222L343.106 101.669L376.5 60.0576C376.926 59.5311 378.248 59.196 379.698 59.196H379.741C381.234 59.196 382.556 59.547 382.94 60.0736L389.763 69.3596L406.652 54.8881C407.164 54.4573 408.273 54.1541 409.552 54.1382C410.832 54.1063 412.026 54.3616 412.666 54.7764L439.491 72.5507L458.427 4.10213C458.598 3.46391 460.005 2.98528 461.711 2.96932C463.417 2.95337 464.867 3.41604 465.08 4.05426L510.927 125.985L556.518 35.1832C556.817 34.5769 558.267 34.1461 559.888 34.1621C561.551 34.178 562.916 34.6247 563.129 35.247L585.946 95.0477L630.002 51.4577C630.471 50.995 631.622 50.6758 632.944 50.6439C634.266 50.612 635.503 50.8673 636.143 51.2981L654.183 63.9348L673.759 53.1809C674.441 52.7979 675.635 52.5905 676.872 52.6384C678.109 52.6862 679.175 52.9734 679.644 53.3883L710.863 80.7996L733.381 55.9252C733.85 55.4146 735.13 55.0317 736.537 55.0317C737.987 55.0317 739.267 55.4146 739.693 55.9092L753.81 71.2264L780.678 59.5789C781.318 59.3077 782.256 59.1641 783.237 59.1641H816.631C818.465 59.1641 820 59.7545 820 60.4406C820 61.1266 818.507 61.717 816.631 61.717H784.772L755.089 74.577C754.321 74.912 753.085 75.0556 751.933 74.9759C750.739 74.8961 749.801 74.561 749.374 74.1462L736.58 60.2491L714.403 84.7246C713.976 85.2192 712.739 85.5543 711.332 85.5703C709.924 85.5862 708.645 85.2831 708.133 84.8044L675.849 56.4836L656.614 67.062C655.932 67.429 654.823 67.6364 653.671 67.6045C652.477 67.5885 651.454 67.3333 650.899 66.9344L633.712 54.904L587.652 100.473C587.097 101.015 585.647 101.334 584.155 101.27C582.619 101.207 581.425 100.76 581.212 100.201L559.419 43.0971L513.827 133.947C513.486 134.569 512.079 135 510.458 135Z" fill="url(#paint0_linear_476_1422)">
<!-- <animate dur="1s" attributeName="opacity" id='asd' from="1" to=".25" begin='3s;asd.end'  repeatCount="indefinite"/>
<animate dur="1s" attributeName="opacity" id='asd2' from=".25" to="1" begin='asd.end'  repeatCount="indefinite"/> -->
<animate id="animation1"
             attributeName="opacity"
             from="0.45" to="1" dur="1s"
             begin="0s;animation2.end" />
    <animate id="animation2"
             attributeName="opacity"
             from="1" to="0.45" dur="1s" 
             begin="animation1.end" />
</path>
<defs>
<linearGradient id="paint0_linear_476_1422" x1="-4.30032e-06" y1="68.1683" x2="820" y2="68.1683" gradientUnits="userSpaceOnUse">
<stop stop-color="#80F98C" stop-opacity="0.247059">
<animate id='ofs' dur="5s" attributeName="offset" fill="freeze" from="1" to="0"  repeatCount="indefinite"/>


<!-- <animate dur="4s" attributeName="offset" from="0" to="1" repeatCount="indefinite" begin="4s" fill="freeze" /> -->
</stop>
<stop offset="0.602083" stop-color="#C3FF00">
<!-- <animate dur="5s" attributeName="opacity"  values="0;1;0" begin="4s"  repeatCount="indefinite"/> -->

</stop>
<stop offset="1" stop-color="#C3FF00" stop-opacity="0">
<!-- <animate dur="5s" attributeName="opacity" values="0;1;0"  repeatCount="indefinite"/> -->

</stop>
</linearGradient>
</defs>
</svg>
