<svg xmlns="http://www.w3.org/2000/svg" width="21" height="21" viewBox="0 0 21 21" fill="none">
<path d="M14.6349 5.31572C13.4537 5.11884 12.3381 5.38134 11.3537 6.03759C11.2881 6.10321 11.2224 6.10322 11.1568 6.10322C11.0912 5.77509 11.0256 5.44697 10.9599 5.18447C11.2881 5.25009 11.6162 5.31572 11.9443 5.31572C12.2724 5.31572 12.5349 5.25009 12.8631 5.18447C14.2412 4.65947 14.8318 2.95322 14.8318 2.75634C14.8974 2.49384 14.8318 2.16572 14.5693 2.03447C14.3724 1.90322 12.8631 0.984465 11.4849 1.57509C10.6974 1.83759 10.1724 2.49384 9.90994 3.08446C9.51619 2.55946 9.12244 2.10009 8.59744 1.70634L8.33494 1.50947C8.07244 1.31259 7.61306 1.37822 7.41619 1.64072C7.21931 1.90322 7.28494 2.36259 7.54744 2.55947L7.80994 2.75634C8.92556 3.54384 9.64744 4.79072 9.84431 6.10322C9.84431 6.10322 9.77869 6.10321 9.77869 6.03759C8.79431 5.38134 7.61306 5.18447 6.49744 5.31572C3.67556 5.77509 1.70681 8.66259 2.16619 11.747C2.29744 14.0438 3.93806 17.3907 5.90681 18.9001C6.56306 19.3595 7.21931 19.622 7.87556 19.622C8.00681 19.622 8.13806 19.622 8.26931 19.622C8.66306 19.5563 9.12244 19.3595 9.45056 19.097C10.0412 18.6376 10.9599 18.6376 11.5506 19.097C11.9443 19.3595 12.3381 19.5563 12.7318 19.622C13.5193 19.7532 14.3068 19.4907 15.0943 18.9001C17.0631 17.4563 18.7037 14.0438 18.9662 11.747C19.3599 8.66259 17.3912 5.77509 14.6349 5.31572Z" fill="#0E0E0E"/>
</svg>