<svg xmlns="http://www.w3.org/2000/svg" width="21" height="21" viewBox="0 0 21 21" fill="none">
<path d="M18.6381 10.0617L18.1116 9.15176C18.0052 8.96579 17.8513 8.81135 17.6658 8.70418C17.4802 8.59701 17.2695 8.54093 17.0553 8.54165H14.4754C14.2923 8.54159 14.1109 8.57763 13.9417 8.64769C13.7725 8.71775 13.6187 8.82047 13.4892 8.94997C13.3597 9.07948 13.257 9.23323 13.1869 9.40245C13.1169 9.57167 13.0808 9.75304 13.0809 9.93618V12.7252H9.53173C9.39104 13.0996 9.22807 13.4651 9.04368 13.82C8.723 14.4279 7.80706 13.9631 8.1093 13.3458C8.40459 12.7741 8.64056 12.1736 8.81353 11.5538C9.11397 10.4607 9.20974 9.44499 9.10991 8.39176C9.73393 7.92689 10.1824 7.26463 10.3824 6.51263C11.3965 2.22482 5.43889 0.299612 3.74795 4.39297C3.30029 5.61447 3.81868 6.85063 3.11333 8.0187C2.83431 8.57834 2.6124 9.16468 2.45098 9.76884C2.07452 11.1703 2.0466 12.5265 2.30458 13.6282C2.48735 14.3614 2.46859 15.1227 2.20693 15.8281C1.72405 17.6007 3.57122 19.3494 5.30291 18.7461L13.5829 16.5218C14.0073 16.366 14.3927 16.1198 14.7125 15.8002L18.3626 12.15C18.6318 11.8807 18.8047 11.5301 18.8545 11.1526C18.9043 10.775 18.8282 10.3916 18.6381 10.0617ZM5.24362 11.9373C5.11166 12.4384 4.92822 12.9244 4.69624 13.3876C4.65259 13.474 4.58576 13.5464 4.50324 13.5969C4.42073 13.6474 4.32578 13.674 4.22904 13.6735C3.85164 13.6813 3.58361 13.2528 3.76194 12.917C4.33133 11.8202 4.62904 10.1573 4.35806 9.07854C4.32759 8.94362 4.35147 8.80212 4.42454 8.68467C4.49761 8.56722 4.614 8.48328 4.7485 8.451C5.90025 8.21586 5.46982 11.12 5.24362 11.9373Z" fill="#0E0E0E"/>
</svg>