<svg xmlns="http://www.w3.org/2000/svg" width="21" height="21" viewBox="0 0 21 21" fill="none">
<g clip-path="url(#clip0_293_800)">
<path fill-rule="evenodd" clip-rule="evenodd" d="M7.82717 20.4505C9.88727 21.1947 11.1107 21.1704 13.1734 20.4593V16.4882C13.2918 14.9934 13.7555 13.7729 14.6539 12.5826C16.3717 12.4894 18.063 11.1055 18.1252 9.31586C19.1773 8.88746 19.748 7.7312 19.7027 6.60728C19.6405 5.06294 18.5368 4.18766 17.1125 3.87938C17.186 1.89656 14.9747 0.842783 13.2162 1.07C11.7349 -0.357997 9.26273 -0.355897 7.78181 1.07168C6.01361 0.841103 3.81071 1.89908 3.88715 3.87938C2.46251 4.18766 1.35917 5.06336 1.29743 6.60728C1.25207 7.7312 1.82285 8.88746 2.87495 9.31544C2.93711 11.1051 4.62929 12.489 6.34667 12.5822C7.24547 13.7725 7.70915 14.993 7.82717 16.4878V20.4505ZM9.61511 12.5415C10.1557 12.6733 10.7 12.6872 11.2439 12.5751L10.4299 15.5277L9.61511 12.5415Z" fill="#0E0E0E"/>
</g>
<defs>
<clipPath id="clip0_293_800">
<rect width="21" height="21" fill="white"/>
</clipPath>
</defs>
</svg>