<svg xmlns="http://www.w3.org/2000/svg" width="21" height="21" viewBox="0 0 21 21" fill="none">
<g clip-path="url(#clip0_293_812)">
<path fill-rule="evenodd" clip-rule="evenodd" d="M10.025 12.3934C11.4761 12.3934 12.6496 13.5677 12.6496 15.0184C12.6496 16.469 11.4757 17.6434 10.025 17.6434C8.57268 17.6434 7.40004 16.4703 7.40004 15.0184C7.40004 13.566 8.57226 12.3934 10.025 12.3934ZM15.913 6.29202C13.8256 5.57886 11.1674 7.29456 9.4845 8.23326C6.71922 9.7755 3.78594 11.7138 4.13286 15.309C4.41174 18.2066 7.07496 20.7753 9.97296 20.984C13.5879 21.2428 15.4376 18.2658 16.9063 15.4484C17.7879 13.7596 19.4351 11.0309 18.68 8.97708C18.5347 8.58228 18.3221 8.21856 18.058 7.89516C18.5372 7.50414 19.029 7.37352 19.6283 7.5957L20.0399 6.47304C18.9597 6.07278 17.9408 6.31596 17.1272 6.97242C16.769 6.67926 16.3586 6.44406 15.913 6.29202ZM8.89902 2.81736C8.45256 2.604 7.97124 2.48514 7.4832 2.4549C7.5042 2.19996 7.55796 1.97316 7.64868 1.77996C7.78686 1.48554 8.02542 1.2495 8.3841 1.08402L7.87926 0C6.80952 0.49392 6.26268 1.41666 6.1707 2.4864C5.7843 2.54058 5.4042 2.6502 5.04678 2.81904C3.05136 3.76404 2.34072 6.84516 1.788 8.69484C0.880801 11.7289 0.131941 15.1641 2.88672 17.4993C3.28992 17.8408 3.74142 18.128 4.22736 18.3498C3.66624 17.4665 3.3147 16.4552 3.21306 15.3985C2.8254 11.3774 5.9208 9.16398 9.03384 7.42728C9.77346 7.01484 10.5316 6.64104 11.3014 6.29286C10.7407 4.87914 10.372 3.52296 8.89902 2.81736Z" fill="#0E0E0E"/>
</g>
<defs>
<clipPath id="clip0_293_812">
<rect width="21" height="21" fill="white"/>
</clipPath>
</defs>
</svg>